<svg xmlns="http://www.w3.org/2000/svg" version="1.1" xmlns:xlink="http://www.w3.org/1999/xlink" xmlns:svgjs="http://svgjs.dev/svgjs" width="1000" height="999" viewBox="0 0 1000 999"><g transform="matrix(1,0,0,1,-0.215743440233382,-0.21552769679306039)"><svg viewBox="0 0 343 343" data-background-color="#ffffff" preserveAspectRatio="xMidYMid meet" height="999" width="1000" xmlns="http://www.w3.org/2000/svg" xmlns:xlink="http://www.w3.org/1999/xlink"><g id="tight-bounds" transform="matrix(1,0,0,1,0.0740000000000407,0.07400000000001228)"><svg viewBox="0 0 342.85155851775386 342.85155851775386" height="342.85155851775386" width="342.85155851775386"><g><svg></svg></g><g><svg viewBox="0 0 342.85155851775386 342.85155851775386" height="342.85155851775386" width="342.85155851775386"><g><path d="M0 171.426c0-94.676 76.75-171.426 171.426-171.426 94.676 0 171.426 76.75 171.426 171.426 0 94.676-76.75 171.426-171.426 171.426-94.676 0-171.426-76.75-171.426-171.426zM171.426 333.133c89.309 0 161.707-72.399 161.707-161.707 0-89.309-72.399-161.707-161.707-161.708-89.309 0-161.707 72.399-161.708 161.708 0 89.309 72.399 161.707 161.708 161.707z" data-fill-palette-color="tertiary" fill="#5e1914" stroke="transparent"></path><ellipse rx="164.56874808852186" ry="164.56874808852186" cx="171.42577925887693" cy="171.42577925887693" fill="#5e1914" stroke="transparent" stroke-width="0" fill-opacity="1" data-fill-palette-color="tertiary"></ellipse></g><g transform="matrix(1,0,0,1,64.84655864529837,117.54362324815745)"><svg viewBox="0 0 213.1584412271571 107.76431202143895" height="107.76431202143895" width="213.1584412271571"><g><svg viewBox="0 0 213.1584412271571 107.76431202143895" height="107.76431202143895" width="213.1584412271571"><g><svg viewBox="0 0 213.1584412271571 107.76431202143895" height="107.76431202143895" width="213.1584412271571"><g><svg viewBox="0 0 213.1584412271571 107.76431202143895" height="107.76431202143895" width="213.1584412271571"><g id="textblocktransform"><svg viewBox="0 0 213.1584412271571 107.76431202143895" height="107.76431202143895" width="213.1584412271571" id="textblock"><g><svg viewBox="0 0 213.1584412271571 107.76431202143895" height="107.76431202143895" width="213.1584412271571"><g transform="matrix(1,0,0,1,0,0)"><svg width="213.1584412271571" viewBox="3.25 -33.70000076293945 67.44999694824219 34.10000228881836" height="107.76431202143895" data-palette-color="#ffffff"><path d="M10.95-13.95L10.95-6.15 15-6.15Q20.7-6.15 20.7-10.05 20.7-13.95 15.05-13.95L15.05-13.95 10.95-13.95ZM15.05-27.55L10.95-27.55 10.95-20 13.8-20Q16.8-20 18.32-21.1 19.85-22.2 19.85-24L19.85-24Q19.85-27.55 15.05-27.55L15.05-27.55ZM3.25 0L3.25-33.7 16.35-33.7Q21.9-33.7 24.8-31.08 27.7-28.45 27.7-24.4L27.7-24.4Q27.7-21.75 26.3-19.75 24.9-17.75 22.65-17.05L22.65-17.05Q28.5-15.3 28.5-9.15L28.5-9.15Q28.5-5.15 25.63-2.58 22.75 0 17.8 0L17.8 0 3.25 0ZM33.25-25.35L40.5-25.35 40.5-20.65Q41.2-22.85 42.82-24.18 44.45-25.5 46.6-25.5L46.6-25.5Q47.8-25.5 48.5-25.3L48.5-25.3 48.5-18.4Q47.3-18.95 45.75-18.95L45.75-18.95Q43.4-18.95 41.95-17.23 40.5-15.5 40.5-12.65L40.5-12.65 40.5 0 33.2 0 33.25-25.35ZM57.9-12.6L57.9-12.6Q58.1-9.25 59.9-7.4 61.7-5.55 64.65-5.55L64.65-5.55Q67.8-5.55 70.7-7.3L70.7-7.3 70.7-1.2Q67.75 0.4 63.6 0.4L63.6 0.4Q57.9 0.4 54.2-3.23 50.5-6.85 50.5-12.6L50.5-12.6Q50.6-18.3 54.2-22.03 57.8-25.75 64.05-25.75L64.05-25.75Q67.9-25.75 70.7-24.3L70.7-24.3 70.7-18.05Q68.05-19.7 64.8-19.7L64.8-19.7Q61.75-19.7 59.85-17.88 57.95-16.05 57.9-12.6Z" opacity="1" transform="matrix(1,0,0,1,0,0)" fill="#ffffff" class="undefined-text-0" data-fill-palette-color="quaternary" id="text-0"></path></svg></g></svg></g></svg></g></svg></g><g></g></svg></g></svg></g></svg></g></svg></g><defs></defs></svg><rect width="342.85155851775386" height="342.85155851775386" fill="none" stroke="none" visibility="hidden"></rect></g></svg></g></svg>